<svg xmlns="http://www.w3.org/2000/svg" width="1920" height="1080"><path d="M87,1259L-161,1280L208,1260Z" fill="#4a4459" stroke="#4a4459" stroke-width="1.51"/><path d="M391,1253L208,1260L649,1261Z" fill="#6a5368" stroke="#6a5368" stroke-width="1.51"/><path d="M282,-217L599,-211L886,-213Z" fill="#5b4150" stroke="#5b4150" stroke-width="1.51"/><path d="M649,1261L208,1260L891,1285Z" fill="#76596f" stroke="#76596f" stroke-width="1.51"/><path d="M208,1260L-161,1280L891,1285Z" fill="#604f63" stroke="#604f63" stroke-width="1.51"/><path d="M891,1285L-161,1280L1041,1296Z" fill="#75586e" stroke="#75586e" stroke-width="1.51"/><path d="M282,-217L886,-213L1764,-211Z" fill="#5a4b58" stroke="#5a4b58" stroke-width="1.51"/><path d="M886,-213L1048,-212L1764,-211Z" fill="#5a515d" stroke="#5a515d" stroke-width="1.51"/><path d="M1048,-212L1435,-199L1764,-211Z" fill="#57525f" stroke="#57525f" stroke-width="1.51"/><path d="M1807,1246L1706,1264L1950,1266Z" fill="#5d5c74" stroke="#5d5c74" stroke-width="1.51"/><path d="M1764,-211L1914,-192L2066,-197Z" fill="#404154" stroke="#404154" stroke-width="1.51"/><path d="M1891,-78L2039,-4L2066,-197Z" fill="#4a4458" stroke="#4a4458" stroke-width="1.51"/><path d="M1914,-192L1891,-78L2066,-197Z" fill="#444256" stroke="#444256" stroke-width="1.51"/><path d="M2044,204L1939,329L2070,359Z" fill="#785b6f" stroke="#785b6f" stroke-width="1.51"/><path d="M1958,715L2039,748L2079,625Z" fill="#776a7c" stroke="#776a7c" stroke-width="1.51"/><path d="M2055,470L1966,571L2079,625Z" fill="#776477" stroke="#776477" stroke-width="1.51"/><path d="M2070,359L2055,470L2079,625Z" fill="#756074" stroke="#756074" stroke-width="1.51"/><path d="M2039,748L1959,842L2081,892Z" fill="#746c7e" stroke="#746c7e" stroke-width="1.51"/><path d="M2079,625L2039,748L2081,892Z" fill="#746a7d" stroke="#746a7d" stroke-width="1.51"/><path d="M1938,192L2044,204L2086,87Z" fill="#695367" stroke="#695367" stroke-width="1.51"/><path d="M1898,98L1938,192L2086,87Z" fill="#665366" stroke="#665366" stroke-width="1.51"/><path d="M2066,-197L2039,-4L2086,87Z" fill="#4e465a" stroke="#4e465a" stroke-width="1.51"/><path d="M2044,204L2070,359L2086,87Z" fill="#6e546a" stroke="#6e546a" stroke-width="1.51"/><path d="M2070,359L2079,625L2086,87Z" fill="#755b70" stroke="#755b70" stroke-width="1.51"/><path d="M2079,625L2081,892L2086,87Z" fill="#746175" stroke="#746175" stroke-width="1.51"/><path d="M1950,1266L1706,1264L2088,1286Z" fill="#585871" stroke="#585871" stroke-width="1.51"/><path d="M1706,1264L1443,1296L2088,1286Z" fill="#605d75" stroke="#605d75" stroke-width="1.51"/><path d="M2035,1093L1947,1147L2088,1286Z" fill="#5a5972" stroke="#5a5972" stroke-width="1.51"/><path d="M1947,1147L1950,1266L2088,1286Z" fill="#575771" stroke="#575771" stroke-width="1.51"/><path d="M2070,966L2035,1093L2088,1286Z" fill="#5c5b73" stroke="#5c5b73" stroke-width="1.51"/><path d="M2081,892L2070,966L2088,1286Z" fill="#605e75" stroke="#605e75" stroke-width="1.51"/><path d="M1938,446L2055,470L2070,359Z" fill="#786073" stroke="#786073" stroke-width="1.51"/><path d="M2039,-4L1898,98L2086,87Z" fill="#5d4e62" stroke="#5d4e62" stroke-width="1.51"/><path d="M1907,958L2035,1093L2070,966Z" fill="#686379" stroke="#686379" stroke-width="1.51"/><path d="M1966,571L1958,715L2079,625Z" fill="#78687b" stroke="#78687b" stroke-width="1.51"/><path d="M1959,842L2070,966L2081,892Z" fill="#6e687b" stroke="#6e687b" stroke-width="1.51"/><path d="M1959,842L1907,958L2070,966Z" fill="#6f697c" stroke="#6f697c" stroke-width="1.51"/><path d="M1939,329L1938,446L2070,359Z" fill="#7a5f73" stroke="#7a5f73" stroke-width="1.51"/><path d="M1938,192L1939,329L2044,204Z" fill="#75596d" stroke="#75596d" stroke-width="1.51"/><path d="M1938,446L1966,571L2055,470Z" fill="#796377" stroke="#796377" stroke-width="1.51"/><path d="M1907,958L1947,1147L2035,1093Z" fill="#656177" stroke="#656177" stroke-width="1.51"/><path d="M1958,715L1959,842L2039,748Z" fill="#786e7f" stroke="#786e7f" stroke-width="1.51"/><path d="M1891,-78L1898,98L2039,-4Z" fill="#594c60" stroke="#594c60" stroke-width="1.51"/><path d="M1435,-199L1514,-175L1764,-211Z" fill="#514d5c" stroke="#514d5c" stroke-width="1.51"/><path d="M1765,462L1780,597L1938,446Z" fill="#816a7a" stroke="#816a7a" stroke-width="1.51"/><path d="M1938,192L1824,191L1939,329Z" fill="#785c6f" stroke="#785c6f" stroke-width="1.51"/><path d="M1907,958L1829,1083L1947,1147Z" fill="#696479" stroke="#696479" stroke-width="1.51"/><path d="M1947,1147L1807,1246L1950,1266Z" fill="#5c5b73" stroke="#5c5b73" stroke-width="1.51"/><path d="M1808,843L1907,958L1959,842Z" fill="#766e7f" stroke="#766e7f" stroke-width="1.51"/><path d="M1958,715L1795,774L1959,842Z" fill="#7c7181" stroke="#7c7181" stroke-width="1.51"/><path d="M1795,774L1808,843L1959,842Z" fill="#7d7383" stroke="#7d7383" stroke-width="1.51"/><path d="M1780,597L1958,715L1966,571Z" fill="#7d6c7d" stroke="#7d6c7d" stroke-width="1.51"/><path d="M1938,446L1780,597L1966,571Z" fill="#7e697a" stroke="#7e697a" stroke-width="1.51"/><path d="M1891,-78L1780,-10L1898,98Z" fill="#5d4f62" stroke="#5d4f62" stroke-width="1.51"/><path d="M1786,385L1938,446L1939,329Z" fill="#7f6375" stroke="#7f6375" stroke-width="1.51"/><path d="M1780,597L1795,774L1958,715Z" fill="#807080" stroke="#807080" stroke-width="1.51"/><path d="M1829,1083L1807,1246L1947,1147Z" fill="#636077" stroke="#636077" stroke-width="1.51"/><path d="M1898,98L1824,191L1938,192Z" fill="#6f586a" stroke="#6f586a" stroke-width="1.51"/><path d="M1824,191L1786,385L1939,329Z" fill="#806173" stroke="#806173" stroke-width="1.51"/><path d="M1786,385L1765,462L1938,446Z" fill="#816778" stroke="#816778" stroke-width="1.51"/><path d="M1771,995L1829,1083L1907,958Z" fill="#70697c" stroke="#70697c" stroke-width="1.51"/><path d="M1764,-211L1891,-78L1914,-192Z" fill="#484558" stroke="#484558" stroke-width="1.51"/><path d="M1808,843L1771,995L1907,958Z" fill="#766d7f" stroke="#766d7f" stroke-width="1.51"/><path d="M1769,127L1824,191L1898,98Z" fill="#6f586a" stroke="#6f586a" stroke-width="1.51"/><path d="M1780,-10L1769,127L1898,98Z" fill="#675466" stroke="#675466" stroke-width="1.51"/><path d="M1274,1265L1041,1296L1443,1296Z" fill="#73697c" stroke="#73697c" stroke-width="1.51"/><path d="M1764,-211L1780,-10L1891,-78Z" fill="#524b5c" stroke="#524b5c" stroke-width="1.51"/><path d="M1514,-175L1678,-170L1764,-211Z" fill="#4e4a5b" stroke="#4e4a5b" stroke-width="1.51"/><path d="M1764,-211L1678,-170L1780,-10Z" fill="#514b5c" stroke="#514b5c" stroke-width="1.51"/><path d="M1666,612L1634,708L1780,597Z" fill="#877482" stroke="#877482" stroke-width="1.51"/><path d="M1664,230L1643,309L1786,385Z" fill="#886777" stroke="#886777" stroke-width="1.51"/><path d="M1780,597L1634,708L1795,774Z" fill="#857483" stroke="#857483" stroke-width="1.51"/><path d="M1702,849L1771,995L1808,843Z" fill="#7b7282" stroke="#7b7282" stroke-width="1.51"/><path d="M1664,230L1786,385L1824,191Z" fill="#836374" stroke="#836374" stroke-width="1.51"/><path d="M1704,1131L1807,1246L1829,1083Z" fill="#676378" stroke="#676378" stroke-width="1.51"/><path d="M1771,995L1704,1131L1829,1083Z" fill="#6f687c" stroke="#6f687c" stroke-width="1.51"/><path d="M1765,462L1709,484L1780,597Z" fill="#856d7c" stroke="#856d7c" stroke-width="1.51"/><path d="M1704,1131L1706,1264L1807,1246Z" fill="#656177" stroke="#656177" stroke-width="1.51"/><path d="M1769,127L1664,230L1824,191Z" fill="#785e6e" stroke="#785e6e" stroke-width="1.51"/><path d="M1694,1004L1704,1131L1771,995Z" fill="#736b7e" stroke="#736b7e" stroke-width="1.51"/><path d="M1678,-170L1632,-30L1780,-10Z" fill="#5b5061" stroke="#5b5061" stroke-width="1.51"/><path d="M1795,774L1702,849L1808,843Z" fill="#817684" stroke="#817684" stroke-width="1.51"/><path d="M1702,849L1694,1004L1771,995Z" fill="#797081" stroke="#797081" stroke-width="1.51"/><path d="M1636,118L1769,127L1780,-10Z" fill="#6d5869" stroke="#6d5869" stroke-width="1.51"/><path d="M1632,-30L1636,118L1780,-10Z" fill="#685767" stroke="#685767" stroke-width="1.51"/><path d="M1634,708L1702,849L1795,774Z" fill="#867885" stroke="#867885" stroke-width="1.51"/><path d="M1709,484L1666,612L1780,597Z" fill="#86707f" stroke="#86707f" stroke-width="1.51"/><path d="M1709,484L1765,462L1786,385Z" fill="#856a7a" stroke="#856a7a" stroke-width="1.51"/><path d="M1643,309L1709,484L1786,385Z" fill="#876a79" stroke="#876a79" stroke-width="1.51"/><path d="M1636,118L1664,230L1769,127Z" fill="#785e6e" stroke="#785e6e" stroke-width="1.51"/><path d="M1048,-212L1263,-164L1435,-199Z" fill="#5c525e" stroke="#5c525e" stroke-width="1.51"/><path d="M1634,708L1521,838L1702,849Z" fill="#8a7d89" stroke="#8a7d89" stroke-width="1.51"/><path d="M1546,961L1694,1004L1702,849Z" fill="#7e7483" stroke="#7e7483" stroke-width="1.51"/><path d="M1694,1004L1546,961L1704,1131Z" fill="#786f80" stroke="#786f80" stroke-width="1.51"/><path d="M1546,961L1505,1165L1704,1131Z" fill="#766e7f" stroke="#766e7f" stroke-width="1.51"/><path d="M1576,1219L1443,1296L1706,1264Z" fill="#6a657a" stroke="#6a657a" stroke-width="1.51"/><path d="M1704,1131L1576,1219L1706,1264Z" fill="#69647a" stroke="#69647a" stroke-width="1.51"/><path d="M1643,309L1544,487L1709,484Z" fill="#8b6e7c" stroke="#8b6e7c" stroke-width="1.51"/><path d="M1570,594L1666,612L1709,484Z" fill="#8a7380" stroke="#8a7380" stroke-width="1.51"/><path d="M1544,487L1570,594L1709,484Z" fill="#8c7380" stroke="#8c7380" stroke-width="1.51"/><path d="M1521,838L1546,961L1702,849Z" fill="#857986" stroke="#857986" stroke-width="1.51"/><path d="M1505,1165L1576,1219L1704,1131Z" fill="#6f697c" stroke="#6f697c" stroke-width="1.51"/><path d="M1547,-76L1632,-30L1678,-170Z" fill="#5c5161" stroke="#5c5161" stroke-width="1.51"/><path d="M1565,304L1544,487L1643,309Z" fill="#8d6d7b" stroke="#8d6d7b" stroke-width="1.51"/><path d="M1565,705L1521,838L1634,708Z" fill="#8d7c89" stroke="#8d7c89" stroke-width="1.51"/><path d="M1632,-30L1548,91L1636,118Z" fill="#705c6b" stroke="#705c6b" stroke-width="1.51"/><path d="M1514,-175L1547,-76L1678,-170Z" fill="#58505f" stroke="#58505f" stroke-width="1.51"/><path d="M1570,594L1565,705L1634,708Z" fill="#8d7985" stroke="#8d7985" stroke-width="1.51"/><path d="M1636,118L1522,198L1664,230Z" fill="#7f6372" stroke="#7f6372" stroke-width="1.51"/><path d="M1565,304L1643,309L1664,230Z" fill="#8b6877" stroke="#8b6877" stroke-width="1.51"/><path d="M1570,594L1634,708L1666,612Z" fill="#8b7683" stroke="#8b7683" stroke-width="1.51"/><path d="M1522,198L1565,304L1664,230Z" fill="#896876" stroke="#896876" stroke-width="1.51"/><path d="M1548,91L1522,198L1636,118Z" fill="#7c6170" stroke="#7c6170" stroke-width="1.51"/><path d="M1547,-76L1548,91L1632,-30Z" fill="#695867" stroke="#695867" stroke-width="1.51"/><path d="M1402,955L1505,1165L1546,961Z" fill="#807584" stroke="#807584" stroke-width="1.51"/><path d="M1547,-76L1456,65L1548,91Z" fill="#705c6a" stroke="#705c6a" stroke-width="1.51"/><path d="M1406,372L1544,487L1565,304Z" fill="#91717e" stroke="#91717e" stroke-width="1.51"/><path d="M1432,776L1521,838L1565,705Z" fill="#90808b" stroke="#90808b" stroke-width="1.51"/><path d="M1412,630L1565,705L1570,594Z" fill="#907b86" stroke="#907b86" stroke-width="1.51"/><path d="M1544,487L1412,630L1570,594Z" fill="#917884" stroke="#917884" stroke-width="1.51"/><path d="M1505,1165L1443,1296L1576,1219Z" fill="#6f697c" stroke="#6f697c" stroke-width="1.51"/><path d="M1404,-35L1456,65L1547,-76Z" fill="#6d5c69" stroke="#6d5c69" stroke-width="1.51"/><path d="M1402,955L1380,1158L1505,1165Z" fill="#7e7383" stroke="#7e7383" stroke-width="1.51"/><path d="M1394,486L1412,630L1544,487Z" fill="#947983" stroke="#947983" stroke-width="1.51"/><path d="M1522,198L1404,238L1565,304Z" fill="#8d6b78" stroke="#8d6b78" stroke-width="1.51"/><path d="M1404,238L1406,372L1565,304Z" fill="#93707c" stroke="#93707c" stroke-width="1.51"/><path d="M1412,630L1432,776L1565,705Z" fill="#937f89" stroke="#937f89" stroke-width="1.51"/><path d="M1406,372L1394,486L1544,487Z" fill="#947681" stroke="#947681" stroke-width="1.51"/><path d="M1521,838L1402,955L1546,961Z" fill="#887b88" stroke="#887b88" stroke-width="1.51"/><path d="M1514,-175L1404,-35L1547,-76Z" fill="#625664" stroke="#625664" stroke-width="1.51"/><path d="M1456,65L1522,198L1548,91Z" fill="#7c6371" stroke="#7c6371" stroke-width="1.51"/><path d="M1435,-199L1404,-35L1514,-175Z" fill="#5e5462" stroke="#5e5462" stroke-width="1.51"/><path d="M1378,841L1402,955L1521,838Z" fill="#8e7f8b" stroke="#8e7f8b" stroke-width="1.51"/><path d="M1456,65L1404,238L1522,198Z" fill="#856774" stroke="#856774" stroke-width="1.51"/><path d="M1380,1158L1443,1296L1505,1165Z" fill="#746d7f" stroke="#746d7f" stroke-width="1.51"/><path d="M1432,776L1378,841L1521,838Z" fill="#91828c" stroke="#91828c" stroke-width="1.51"/><path d="M1111,1266L1041,1296L1274,1265Z" fill="#75677a" stroke="#75677a" stroke-width="1.51"/><path d="M1278,1082L1380,1158L1402,955Z" fill="#847886" stroke="#847886" stroke-width="1.51"/><path d="M1263,-164L1404,-35L1435,-199Z" fill="#635864" stroke="#635864" stroke-width="1.51"/><path d="M1380,1158L1274,1265L1443,1296Z" fill="#756d7f" stroke="#756d7f" stroke-width="1.51"/><path d="M1404,-35L1290,48L1456,65Z" fill="#76616d" stroke="#76616d" stroke-width="1.51"/><path d="M1290,48L1404,238L1456,65Z" fill="#826772" stroke="#826772" stroke-width="1.51"/><path d="M1290,48L1253,213L1404,238Z" fill="#8a6a76" stroke="#8a6a76" stroke-width="1.51"/><path d="M1274,625L1246,753L1412,630Z" fill="#998189" stroke="#998189" stroke-width="1.51"/><path d="M1412,630L1246,753L1432,776Z" fill="#98848c" stroke="#98848c" stroke-width="1.51"/><path d="M1404,238L1272,352L1406,372Z" fill="#98747f" stroke="#98747f" stroke-width="1.51"/><path d="M1394,486L1274,625L1412,630Z" fill="#987e87" stroke="#987e87" stroke-width="1.51"/><path d="M1279,961L1278,1082L1402,955Z" fill="#897a87" stroke="#897a87" stroke-width="1.51"/><path d="M1304,434L1394,486L1406,372Z" fill="#987882" stroke="#987882" stroke-width="1.51"/><path d="M1246,753L1378,841L1432,776Z" fill="#98878e" stroke="#98878e" stroke-width="1.51"/><path d="M1378,841L1279,961L1402,955Z" fill="#8f808b" stroke="#8f808b" stroke-width="1.51"/><path d="M1263,-164L1254,-45L1404,-35Z" fill="#6a5b67" stroke="#6a5b67" stroke-width="1.51"/><path d="M1253,213L1272,352L1404,238Z" fill="#97717c" stroke="#97717c" stroke-width="1.51"/><path d="M1272,352L1304,434L1406,372Z" fill="#997781" stroke="#997781" stroke-width="1.51"/><path d="M1304,434L1274,625L1394,486Z" fill="#997c85" stroke="#997c85" stroke-width="1.51"/><path d="M1254,-45L1290,48L1404,-35Z" fill="#735f6b" stroke="#735f6b" stroke-width="1.51"/><path d="M1249,857L1279,961L1378,841Z" fill="#92818b" stroke="#92818b" stroke-width="1.51"/><path d="M1246,753L1249,857L1378,841Z" fill="#97858d" stroke="#97858d" stroke-width="1.51"/><path d="M1278,1082L1274,1265L1380,1158Z" fill="#7c7181" stroke="#7c7181" stroke-width="1.51"/><path d="M1048,-212L1178,-135L1263,-164Z" fill="#5f525f" stroke="#5f525f" stroke-width="1.51"/><path d="M1253,213L1186,304L1272,352Z" fill="#99707c" stroke="#99707c" stroke-width="1.51"/><path d="M1144,452L1184,632L1274,625Z" fill="#997a84" stroke="#997a84" stroke-width="1.51"/><path d="M1184,632L1246,753L1274,625Z" fill="#997f88" stroke="#997f88" stroke-width="1.51"/><path d="M1117,1095L1111,1266L1274,1265Z" fill="#7a6c7d" stroke="#7a6c7d" stroke-width="1.51"/><path d="M1117,1095L1274,1265L1278,1082Z" fill="#7e7080" stroke="#7e7080" stroke-width="1.51"/><path d="M1187,989L1278,1082L1279,961Z" fill="#887885" stroke="#887885" stroke-width="1.51"/><path d="M1165,66L1253,213L1290,48Z" fill="#826571" stroke="#826571" stroke-width="1.51"/><path d="M1144,452L1274,625L1304,434Z" fill="#997982" stroke="#997982" stroke-width="1.51"/><path d="M1272,352L1144,452L1304,434Z" fill="#997580" stroke="#997580" stroke-width="1.51"/><path d="M1184,632L1185,745L1246,753Z" fill="#998089" stroke="#998089" stroke-width="1.51"/><path d="M1178,-135L1254,-45L1263,-164Z" fill="#665763" stroke="#665763" stroke-width="1.51"/><path d="M1254,-45L1165,66L1290,48Z" fill="#77606b" stroke="#77606b" stroke-width="1.51"/><path d="M1186,304L1144,452L1272,352Z" fill="#99727d" stroke="#99727d" stroke-width="1.51"/><path d="M1249,857L1187,989L1279,961Z" fill="#8e7c88" stroke="#8e7c88" stroke-width="1.51"/><path d="M1187,989L1117,1095L1278,1082Z" fill="#857483" stroke="#857483" stroke-width="1.51"/><path d="M1127,890L1187,989L1249,857Z" fill="#907d88" stroke="#907d88" stroke-width="1.51"/><path d="M1246,753L1185,745L1249,857Z" fill="#98848c" stroke="#98848c" stroke-width="1.51"/><path d="M1165,66L1117,258L1253,213Z" fill="#8c6874" stroke="#8c6874" stroke-width="1.51"/><path d="M1124,-17L1165,66L1254,-45Z" fill="#755d69" stroke="#755d69" stroke-width="1.51"/><path d="M1185,745L1127,890L1249,857Z" fill="#96818a" stroke="#96818a" stroke-width="1.51"/><path d="M1117,258L1186,304L1253,213Z" fill="#966d79" stroke="#966d79" stroke-width="1.51"/><path d="M1178,-135L1124,-17L1254,-45Z" fill="#6d5865" stroke="#6d5865" stroke-width="1.51"/><path d="M1117,258L992,344L1144,452Z" fill="#996f7a" stroke="#996f7a" stroke-width="1.51"/><path d="M1025,58L1117,258L1165,66Z" fill="#85636f" stroke="#85636f" stroke-width="1.51"/><path d="M1044,629L1030,694L1184,632Z" fill="#997a84" stroke="#997a84" stroke-width="1.51"/><path d="M1144,452L1044,629L1184,632Z" fill="#997882" stroke="#997882" stroke-width="1.51"/><path d="M1049,875L1127,890L1185,745Z" fill="#967f88" stroke="#967f88" stroke-width="1.51"/><path d="M1030,694L1049,875L1185,745Z" fill="#997f88" stroke="#997f88" stroke-width="1.51"/><path d="M1184,632L1030,694L1185,745Z" fill="#997d86" stroke="#997d86" stroke-width="1.51"/><path d="M1117,258L1144,452L1186,304Z" fill="#99707b" stroke="#99707b" stroke-width="1.51"/><path d="M1127,890L1038,971L1187,989Z" fill="#8d7985" stroke="#8d7985" stroke-width="1.51"/><path d="M1038,971L1117,1095L1187,989Z" fill="#887483" stroke="#887483" stroke-width="1.51"/><path d="M999,463L1044,629L1144,452Z" fill="#99757f" stroke="#99757f" stroke-width="1.51"/><path d="M1054,-9L1124,-17L1178,-135Z" fill="#6e5865" stroke="#6e5865" stroke-width="1.51"/><path d="M1048,-212L1054,-9L1178,-135Z" fill="#665360" stroke="#665360" stroke-width="1.51"/><path d="M726,1254L649,1261L891,1285Z" fill="#765e72" stroke="#765e72" stroke-width="1.51"/><path d="M1025,58L996,250L1117,258Z" fill="#8d6572" stroke="#8d6572" stroke-width="1.51"/><path d="M1124,-17L1054,-9L1165,66Z" fill="#775c68" stroke="#775c68" stroke-width="1.51"/><path d="M1054,-9L1025,58L1165,66Z" fill="#7a5c69" stroke="#7a5c69" stroke-width="1.51"/><path d="M988,1091L1041,1296L1111,1266Z" fill="#79687a" stroke="#79687a" stroke-width="1.51"/><path d="M988,1091L1111,1266L1117,1095Z" fill="#7e6c7d" stroke="#7e6c7d" stroke-width="1.51"/><path d="M992,344L999,463L1144,452Z" fill="#99707b" stroke="#99707b" stroke-width="1.51"/><path d="M1048,-212L929,-87L1054,-9Z" fill="#68525f" stroke="#68525f" stroke-width="1.51"/><path d="M1038,971L988,1091L1117,1095Z" fill="#867180" stroke="#867180" stroke-width="1.51"/><path d="M996,250L992,344L1117,258Z" fill="#996b77" stroke="#996b77" stroke-width="1.51"/><path d="M1049,875L1038,971L1127,890Z" fill="#907a85" stroke="#907a85" stroke-width="1.51"/><path d="M880,1115L891,1285L988,1091Z" fill="#7e6879" stroke="#7e6879" stroke-width="1.51"/><path d="M890,80L996,250L1025,58Z" fill="#855f6c" stroke="#855f6c" stroke-width="1.51"/><path d="M883,702L887,834L1030,694Z" fill="#997a84" stroke="#997a84" stroke-width="1.51"/><path d="M988,1091L891,1285L1041,1296Z" fill="#796578" stroke="#796578" stroke-width="1.51"/><path d="M999,463L890,589L1044,629Z" fill="#99747f" stroke="#99747f" stroke-width="1.51"/><path d="M886,-213L929,-87L1048,-212Z" fill="#604d5a" stroke="#604d5a" stroke-width="1.51"/><path d="M887,834L1038,971L1049,875Z" fill="#927883" stroke="#927883" stroke-width="1.51"/><path d="M1030,694L887,834L1049,875Z" fill="#997e87" stroke="#997e87" stroke-width="1.51"/><path d="M929,-87L1025,58L1054,-9Z" fill="#745764" stroke="#745764" stroke-width="1.51"/><path d="M885,1034L988,1091L1038,971Z" fill="#87707f" stroke="#87707f" stroke-width="1.51"/><path d="M887,834L885,1034L1038,971Z" fill="#8e7481" stroke="#8e7481" stroke-width="1.51"/><path d="M890,589L1030,694L1044,629Z" fill="#997781" stroke="#997781" stroke-width="1.51"/><path d="M890,80L869,233L996,250Z" fill="#8d626f" stroke="#8d626f" stroke-width="1.51"/><path d="M929,-87L890,80L1025,58Z" fill="#775865" stroke="#775865" stroke-width="1.51"/><path d="M890,589L883,702L1030,694Z" fill="#997781" stroke="#997781" stroke-width="1.51"/><path d="M931,451L890,589L999,463Z" fill="#99717c" stroke="#99717c" stroke-width="1.51"/><path d="M992,344L931,451L999,463Z" fill="#996e7a" stroke="#996e7a" stroke-width="1.51"/><path d="M282,-217L347,-201L599,-211Z" fill="#4e3b49" stroke="#4e3b49" stroke-width="1.51"/><path d="M900,350L931,451L992,344Z" fill="#996c78" stroke="#996c78" stroke-width="1.51"/><path d="M900,350L992,344L996,250Z" fill="#996a76" stroke="#996a76" stroke-width="1.51"/><path d="M869,233L900,350L996,250Z" fill="#986874" stroke="#986874" stroke-width="1.51"/><path d="M804,894L885,1034L887,834Z" fill="#907380" stroke="#907380" stroke-width="1.51"/><path d="M885,1034L880,1115L988,1091Z" fill="#846d7c" stroke="#846d7c" stroke-width="1.51"/><path d="M886,-213L769,-133L929,-87Z" fill="#634c59" stroke="#634c59" stroke-width="1.51"/><path d="M769,-133L782,-54L929,-87Z" fill="#6a4f5c" stroke="#6a4f5c" stroke-width="1.51"/><path d="M803,53L890,80L929,-87Z" fill="#775664" stroke="#775664" stroke-width="1.51"/><path d="M782,-54L803,53L929,-87Z" fill="#72525f" stroke="#72525f" stroke-width="1.51"/><path d="M900,350L764,436L931,451Z" fill="#996c77" stroke="#996c77" stroke-width="1.51"/><path d="M764,436L890,589L931,451Z" fill="#996f7a" stroke="#996f7a" stroke-width="1.51"/><path d="M803,53L799,252L869,233Z" fill="#8c5f6c" stroke="#8c5f6c" stroke-width="1.51"/><path d="M725,1116L726,1254L880,1115Z" fill="#7e6476" stroke="#7e6476" stroke-width="1.51"/><path d="M804,894L723,969L885,1034Z" fill="#8d707d" stroke="#8d707d" stroke-width="1.51"/><path d="M599,-211L769,-133L886,-213Z" fill="#5e4755" stroke="#5e4755" stroke-width="1.51"/><path d="M883,702L771,697L887,834Z" fill="#997882" stroke="#997882" stroke-width="1.51"/><path d="M771,697L883,702L890,589Z" fill="#99757f" stroke="#99757f" stroke-width="1.51"/><path d="M764,436L725,562L890,589Z" fill="#996e7a" stroke="#996e7a" stroke-width="1.51"/><path d="M803,53L869,233L890,80Z" fill="#845c69" stroke="#845c69" stroke-width="1.51"/><path d="M880,1115L726,1254L891,1285Z" fill="#7a6375" stroke="#7a6375" stroke-width="1.51"/><path d="M799,252L737,380L900,350Z" fill="#996773" stroke="#996773" stroke-width="1.51"/><path d="M737,380L764,436L900,350Z" fill="#996975" stroke="#996975" stroke-width="1.51"/><path d="M869,233L799,252L900,350Z" fill="#996673" stroke="#996673" stroke-width="1.51"/><path d="M725,1116L880,1115L885,1034Z" fill="#836a7a" stroke="#836a7a" stroke-width="1.51"/><path d="M771,697L804,894L887,834Z" fill="#987983" stroke="#987983" stroke-width="1.51"/><path d="M725,562L771,697L890,589Z" fill="#99727d" stroke="#99727d" stroke-width="1.51"/><path d="M723,969L725,1116L885,1034Z" fill="#876b7a" stroke="#876b7a" stroke-width="1.51"/><path d="M723,969L670,1020L725,1116Z" fill="#876979" stroke="#876979" stroke-width="1.51"/><path d="M608,195L799,252L803,53Z" fill="#8a5b69" stroke="#8a5b69" stroke-width="1.51"/><path d="M650,46L608,195L803,53Z" fill="#815664" stroke="#815664" stroke-width="1.51"/><path d="M782,-54L650,46L803,53Z" fill="#775361" stroke="#775361" stroke-width="1.51"/><path d="M604,897L723,969L804,894Z" fill="#90707d" stroke="#90707d" stroke-width="1.51"/><path d="M771,697L666,696L804,894Z" fill="#997680" stroke="#997680" stroke-width="1.51"/><path d="M666,696L604,897L804,894Z" fill="#97757f" stroke="#97757f" stroke-width="1.51"/><path d="M607,338L737,380L799,252Z" fill="#996471" stroke="#996471" stroke-width="1.51"/><path d="M608,195L607,338L799,252Z" fill="#965f6e" stroke="#965f6e" stroke-width="1.51"/><path d="M725,562L666,696L771,697Z" fill="#99717c" stroke="#99717c" stroke-width="1.51"/><path d="M769,-133L623,-80L782,-54Z" fill="#6a4c5a" stroke="#6a4c5a" stroke-width="1.51"/><path d="M623,-80L650,46L782,-54Z" fill="#714f5d" stroke="#714f5d" stroke-width="1.51"/><path d="M616,494L725,562L764,436Z" fill="#996a77" stroke="#996a77" stroke-width="1.51"/><path d="M599,-211L623,-80L769,-133Z" fill="#634756" stroke="#634756" stroke-width="1.51"/><path d="M737,380L616,494L764,436Z" fill="#996875" stroke="#996875" stroke-width="1.51"/><path d="M670,1020L646,1091L725,1116Z" fill="#846677" stroke="#846677" stroke-width="1.51"/><path d="M646,1091L649,1261L725,1116Z" fill="#7e6274" stroke="#7e6274" stroke-width="1.51"/><path d="M593,592L666,696L725,562Z" fill="#996e7a" stroke="#996e7a" stroke-width="1.51"/><path d="M725,1116L649,1261L726,1254Z" fill="#7a6073" stroke="#7a6073" stroke-width="1.51"/><path d="M607,338L616,494L737,380Z" fill="#996573" stroke="#996573" stroke-width="1.51"/><path d="M486,1216L391,1253L649,1261Z" fill="#73586c" stroke="#73586c" stroke-width="1.51"/><path d="M545,860L604,897L666,696Z" fill="#97737e" stroke="#97737e" stroke-width="1.51"/><path d="M604,897L670,1020L723,969Z" fill="#8c6c7a" stroke="#8c6c7a" stroke-width="1.51"/><path d="M616,494L593,592L725,562Z" fill="#996b77" stroke="#996b77" stroke-width="1.51"/><path d="M607,338L514,444L616,494Z" fill="#996471" stroke="#996471" stroke-width="1.51"/><path d="M533,1082L486,1216L646,1091Z" fill="#7f6072" stroke="#7f6072" stroke-width="1.51"/><path d="M646,1091L486,1216L649,1261Z" fill="#7c5e71" stroke="#7c5e71" stroke-width="1.51"/><path d="M532,70L608,195L650,46Z" fill="#825463" stroke="#825463" stroke-width="1.51"/><path d="M501,762L545,860L666,696Z" fill="#99727d" stroke="#99727d" stroke-width="1.51"/><path d="M604,897L513,996L670,1020Z" fill="#8c6a78" stroke="#8c6a78" stroke-width="1.51"/><path d="M533,1082L646,1091L670,1020Z" fill="#856576" stroke="#856576" stroke-width="1.51"/><path d="M513,996L533,1082L670,1020Z" fill="#886676" stroke="#886676" stroke-width="1.51"/><path d="M623,-80L532,70L650,46Z" fill="#764f5d" stroke="#764f5d" stroke-width="1.51"/><path d="M593,592L501,762L666,696Z" fill="#996f7a" stroke="#996f7a" stroke-width="1.51"/><path d="M530,225L607,338L608,195Z" fill="#945d6b" stroke="#945d6b" stroke-width="1.51"/><path d="M599,-211L536,-89L623,-80Z" fill="#654755" stroke="#654755" stroke-width="1.51"/><path d="M536,-89L532,70L623,-80Z" fill="#704b5a" stroke="#704b5a" stroke-width="1.51"/><path d="M347,-201L478,-144L599,-211Z" fill="#573f4d" stroke="#573f4d" stroke-width="1.51"/><path d="M532,70L530,225L608,195Z" fill="#885665" stroke="#885665" stroke-width="1.51"/><path d="M514,444L462,575L593,592Z" fill="#956673" stroke="#956673" stroke-width="1.51"/><path d="M462,575L501,762L593,592Z" fill="#946b77" stroke="#946b77" stroke-width="1.51"/><path d="M478,-144L536,-89L599,-211Z" fill="#604352" stroke="#604352" stroke-width="1.51"/><path d="M468,383L514,444L607,338Z" fill="#95616f" stroke="#95616f" stroke-width="1.51"/><path d="M514,444L593,592L616,494Z" fill="#996774" stroke="#996774" stroke-width="1.51"/><path d="M545,860L513,996L604,897Z" fill="#8f6c79" stroke="#8f6c79" stroke-width="1.51"/><path d="M530,225L468,383L607,338Z" fill="#955e6c" stroke="#955e6c" stroke-width="1.51"/><path d="M462,575L377,693L501,762Z" fill="#8e6875" stroke="#8e6875" stroke-width="1.51"/><path d="M370,221L468,383L530,225Z" fill="#8e5968" stroke="#8e5968" stroke-width="1.51"/><path d="M367,101L370,221L530,225Z" fill="#7f5261" stroke="#7f5261" stroke-width="1.51"/><path d="M357,-64L367,101L532,70Z" fill="#6c4958" stroke="#6c4958" stroke-width="1.51"/><path d="M367,101L530,225L532,70Z" fill="#7d5160" stroke="#7d5160" stroke-width="1.51"/><path d="M367,1155L486,1216L533,1082Z" fill="#765b6d" stroke="#765b6d" stroke-width="1.51"/><path d="M357,-64L532,70L536,-89Z" fill="#6a4857" stroke="#6a4857" stroke-width="1.51"/><path d="M349,849L513,996L545,860Z" fill="#886976" stroke="#886976" stroke-width="1.51"/><path d="M501,762L349,849L545,860Z" fill="#8e6d79" stroke="#8e6d79" stroke-width="1.51"/><path d="M513,996L386,1034L533,1082Z" fill="#7f6272" stroke="#7f6272" stroke-width="1.51"/><path d="M478,-144L357,-64L536,-89Z" fill="#5f4352" stroke="#5f4352" stroke-width="1.51"/><path d="M349,849L386,1034L513,996Z" fill="#806472" stroke="#806472" stroke-width="1.51"/><path d="M386,1034L367,1155L533,1082Z" fill="#775d6e" stroke="#775d6e" stroke-width="1.51"/><path d="M370,221L351,354L468,383Z" fill="#895867" stroke="#895867" stroke-width="1.51"/><path d="M468,383L365,439L514,444Z" fill="#8e5e6c" stroke="#8e5e6c" stroke-width="1.51"/><path d="M365,439L462,575L514,444Z" fill="#8e616e" stroke="#8e616e" stroke-width="1.51"/><path d="M377,693L349,849L501,762Z" fill="#8b6b76" stroke="#8b6b76" stroke-width="1.51"/><path d="M-3,-202L154,-182L282,-217Z" fill="#3b3140" stroke="#3b3140" stroke-width="1.51"/><path d="M367,1155L391,1253L486,1216Z" fill="#6e5669" stroke="#6e5669" stroke-width="1.51"/><path d="M337,628L377,693L462,575Z" fill="#8a6571" stroke="#8a6571" stroke-width="1.51"/><path d="M347,-201L357,-64L478,-144Z" fill="#553e4d" stroke="#553e4d" stroke-width="1.51"/><path d="M365,439L337,628L462,575Z" fill="#89616e" stroke="#89616e" stroke-width="1.51"/><path d="M351,354L365,439L468,383Z" fill="#8a5b69" stroke="#8a5b69" stroke-width="1.51"/><path d="M203,503L216,583L337,628Z" fill="#7e5c6a" stroke="#7e5c6a" stroke-width="1.51"/><path d="M203,503L337,628L365,439Z" fill="#825d6a" stroke="#825d6a" stroke-width="1.51"/><path d="M357,-64L218,52L367,101Z" fill="#634554" stroke="#634554" stroke-width="1.51"/><path d="M367,101L262,240L370,221Z" fill="#784f5e" stroke="#784f5e" stroke-width="1.51"/><path d="M262,240L351,354L370,221Z" fill="#825463" stroke="#825463" stroke-width="1.51"/><path d="M227,702L349,849L377,693Z" fill="#836672" stroke="#836672" stroke-width="1.51"/><path d="M222,1107L367,1155L386,1034Z" fill="#6e5969" stroke="#6e5969" stroke-width="1.51"/><path d="M273,984L222,1107L386,1034Z" fill="#6f5a6a" stroke="#6f5a6a" stroke-width="1.51"/><path d="M349,849L273,984L386,1034Z" fill="#79606f" stroke="#79606f" stroke-width="1.51"/><path d="M367,1155L208,1260L391,1253Z" fill="#655165" stroke="#655165" stroke-width="1.51"/><path d="M262,240L241,325L351,354Z" fill="#805362" stroke="#805362" stroke-width="1.51"/><path d="M347,-201L282,-217L357,-64Z" fill="#4e3b4a" stroke="#4e3b4a" stroke-width="1.51"/><path d="M202,-17L218,52L357,-64Z" fill="#5a404f" stroke="#5a404f" stroke-width="1.51"/><path d="M337,628L227,702L377,693Z" fill="#836370" stroke="#836370" stroke-width="1.51"/><path d="M222,1107L208,1260L367,1155Z" fill="#635265" stroke="#635265" stroke-width="1.51"/><path d="M218,52L262,240L367,101Z" fill="#6d4958" stroke="#6d4958" stroke-width="1.51"/><path d="M282,-217L202,-17L357,-64Z" fill="#513c4b" stroke="#513c4b" stroke-width="1.51"/><path d="M351,354L241,325L365,439Z" fill="#835766" stroke="#835766" stroke-width="1.51"/><path d="M203,875L273,984L349,849Z" fill="#78616e" stroke="#78616e" stroke-width="1.51"/><path d="M241,325L203,503L365,439Z" fill="#7f5765" stroke="#7f5765" stroke-width="1.51"/><path d="M227,702L203,875L349,849Z" fill="#7d6570" stroke="#7d6570" stroke-width="1.51"/><path d="M154,-182L202,-17L282,-217Z" fill="#473746" stroke="#473746" stroke-width="1.51"/><path d="M216,583L227,702L337,628Z" fill="#7e5f6c" stroke="#7e5f6c" stroke-width="1.51"/><path d="M154,-182L131,-53L202,-17Z" fill="#4a3847" stroke="#4a3847" stroke-width="1.51"/><path d="M99,85L138,250L218,52Z" fill="#624453" stroke="#624453" stroke-width="1.51"/><path d="M123,827L203,875L227,702Z" fill="#77626e" stroke="#77626e" stroke-width="1.51"/><path d="M218,52L138,250L262,240Z" fill="#6d4958" stroke="#6d4958" stroke-width="1.51"/><path d="M116,983L222,1107L273,984Z" fill="#695767" stroke="#695767" stroke-width="1.51"/><path d="M110,476L203,503L241,325Z" fill="#785562" stroke="#785562" stroke-width="1.51"/><path d="M203,875L116,983L273,984Z" fill="#6e5b69" stroke="#6e5b69" stroke-width="1.51"/><path d="M106,1164L208,1260L222,1107Z" fill="#5c4e61" stroke="#5c4e61" stroke-width="1.51"/><path d="M91,318L110,476L241,325Z" fill="#75515f" stroke="#75515f" stroke-width="1.51"/><path d="M138,250L241,325L262,240Z" fill="#794f5e" stroke="#794f5e" stroke-width="1.51"/><path d="M216,583L83,693L227,702Z" fill="#775d69" stroke="#775d69" stroke-width="1.51"/><path d="M138,250L91,318L241,325Z" fill="#754e5d" stroke="#754e5d" stroke-width="1.51"/><path d="M86,563L83,693L216,583Z" fill="#735966" stroke="#735966" stroke-width="1.51"/><path d="M116,983L106,1164L222,1107Z" fill="#605263" stroke="#605263" stroke-width="1.51"/><path d="M83,693L123,827L227,702Z" fill="#745e6a" stroke="#745e6a" stroke-width="1.51"/><path d="M203,503L86,563L216,583Z" fill="#775865" stroke="#775865" stroke-width="1.51"/><path d="M106,1164L87,1259L208,1260Z" fill="#544a5e" stroke="#544a5e" stroke-width="1.51"/><path d="M202,-17L99,85L218,52Z" fill="#59404f" stroke="#59404f" stroke-width="1.51"/><path d="M131,-53L99,85L202,-17Z" fill="#533d4c" stroke="#533d4c" stroke-width="1.51"/><path d="M110,476L86,563L203,503Z" fill="#745662" stroke="#745662" stroke-width="1.51"/><path d="M123,827L116,983L203,875Z" fill="#6d5c69" stroke="#6d5c69" stroke-width="1.51"/><path d="M-27,1152L106,1164L116,983Z" fill="#584d5f" stroke="#584d5f" stroke-width="1.51"/><path d="M-3,952L116,983L123,827Z" fill="#665766" stroke="#665766" stroke-width="1.51"/><path d="M-21,894L-3,952L123,827Z" fill="#645765" stroke="#645765" stroke-width="1.51"/><path d="M-1,50L99,85L131,-53Z" fill="#503b4a" stroke="#503b4a" stroke-width="1.51"/><path d="M99,85L10,194L138,250Z" fill="#634553" stroke="#634553" stroke-width="1.51"/><path d="M-3,-202L131,-53L154,-182Z" fill="#3d3241" stroke="#3d3241" stroke-width="1.51"/><path d="M-35,1214L-161,1280L87,1259Z" fill="#444256" stroke="#444256" stroke-width="1.51"/><path d="M-3,952L-27,1152L116,983Z" fill="#595060" stroke="#595060" stroke-width="1.51"/><path d="M-3,-202L-41,-74L131,-53Z" fill="#3c3241" stroke="#3c3241" stroke-width="1.51"/><path d="M10,194L91,318L138,250Z" fill="#6c4958" stroke="#6c4958" stroke-width="1.51"/><path d="M-22,311L-43,476L91,318Z" fill="#694b59" stroke="#694b59" stroke-width="1.51"/><path d="M91,318L-43,476L110,476Z" fill="#6d4f5c" stroke="#6d4f5c" stroke-width="1.51"/><path d="M83,693L-38,734L123,827Z" fill="#6d5b67" stroke="#6d5b67" stroke-width="1.51"/><path d="M-41,-74L-1,50L131,-53Z" fill="#463746" stroke="#463746" stroke-width="1.51"/><path d="M-38,734L-21,894L123,827Z" fill="#685a67" stroke="#685a67" stroke-width="1.51"/><path d="M-4,569L83,693L86,563Z" fill="#6d5663" stroke="#6d5663" stroke-width="1.51"/><path d="M10,194L-22,311L91,318Z" fill="#6a4857" stroke="#6a4857" stroke-width="1.51"/><path d="M-35,1214L87,1259L106,1164Z" fill="#4e475a" stroke="#4e475a" stroke-width="1.51"/><path d="M-27,1152L-35,1214L106,1164Z" fill="#4e485b" stroke="#4e485b" stroke-width="1.51"/><path d="M-4,569L86,563L110,476Z" fill="#6e5361" stroke="#6e5361" stroke-width="1.51"/><path d="M-43,476L-4,569L110,476Z" fill="#6a515e" stroke="#6a515e" stroke-width="1.51"/><path d="M-1,50L10,194L99,85Z" fill="#573f4e" stroke="#573f4e" stroke-width="1.51"/><path d="M-4,569L-38,734L83,693Z" fill="#695762" stroke="#695762" stroke-width="1.51"/><path d="M-131,435L-43,476L-22,311Z" fill="#644a58" stroke="#644a58" stroke-width="1.51"/><path d="M-38,734L-170,826L-21,894Z" fill="#605663" stroke="#605663" stroke-width="1.51"/><path d="M-152,604L-38,734L-4,569Z" fill="#63525f" stroke="#63525f" stroke-width="1.51"/><path d="M-129,1031L-27,1152L-3,952Z" fill="#524b5c" stroke="#524b5c" stroke-width="1.51"/><path d="M-41,-74L-119,-7L-1,50Z" fill="#413543" stroke="#413543" stroke-width="1.51"/><path d="M-161,250L-22,311L10,194Z" fill="#614452" stroke="#614452" stroke-width="1.51"/><path d="M-157,102L-161,250L10,194Z" fill="#543e4d" stroke="#543e4d" stroke-width="1.51"/><path d="M-1,50L-157,102L10,194Z" fill="#513c4b" stroke="#513c4b" stroke-width="1.51"/><path d="M-152,604L-156,709L-38,734Z" fill="#5f525e" stroke="#5f525e" stroke-width="1.51"/><path d="M-161,250L-134,307L-22,311Z" fill="#604453" stroke="#604453" stroke-width="1.51"/><path d="M-134,307L-131,435L-22,311Z" fill="#614655" stroke="#614655" stroke-width="1.51"/><path d="M-174,-152L-41,-74L-3,-202Z" fill="#302c3b" stroke="#302c3b" stroke-width="1.51"/><path d="M-119,-7L-157,102L-1,50Z" fill="#453745" stroke="#453745" stroke-width="1.51"/><path d="M-43,476L-152,604L-4,569Z" fill="#634f5b" stroke="#634f5b" stroke-width="1.51"/><path d="M-21,894L-129,1031L-3,952Z" fill="#58505f" stroke="#58505f" stroke-width="1.51"/><path d="M-129,1031L-158,1124L-27,1152Z" fill="#494658" stroke="#494658" stroke-width="1.51"/><path d="M-170,826L-129,1031L-21,894Z" fill="#56505f" stroke="#56505f" stroke-width="1.51"/><path d="M-158,1124L-35,1214L-27,1152Z" fill="#474558" stroke="#474558" stroke-width="1.51"/><path d="M-131,435L-152,604L-43,476Z" fill="#604b58" stroke="#604b58" stroke-width="1.51"/><path d="M-156,709L-170,826L-38,734Z" fill="#5e5460" stroke="#5e5460" stroke-width="1.51"/><path d="M-158,1124L-161,1280L-35,1214Z" fill="#404155" stroke="#404155" stroke-width="1.51"/><path d="M-174,-152L-119,-7L-41,-74Z" fill="#352e3d" stroke="#352e3d" stroke-width="1.51"/><path d="M-174,-152L-157,102L-119,-7Z" fill="#39303f" stroke="#39303f" stroke-width="1.51"/><path d="M-134,307L-161,250L-131,435Z" fill="#5d4452" stroke="#5d4452" stroke-width="1.51"/><path d="M-170,826L-158,1124L-129,1031Z" fill="#4d4a5a" stroke="#4d4a5a" stroke-width="1.51"/><path d="M-161,250L-152,604L-131,435Z" fill="#5c4755" stroke="#5c4755" stroke-width="1.51"/><path d="M-170,826L-156,709L-152,604Z" fill="#5b515d" stroke="#5b515d" stroke-width="1.51"/><path d="M-161,250L-170,826L-152,604Z" fill="#5b4b59" stroke="#5b4b59" stroke-width="1.51"/><path d="M-174,-152L-161,250L-157,102Z" fill="#423544" stroke="#423544" stroke-width="1.51"/><path d="M-170,826L-161,1280L-158,1124Z" fill="#464557" stroke="#464557" stroke-width="1.51"/><path d="M-174,-152L-170,826L-161,250Z" fill="#5b4251" stroke="#5b4251" stroke-width="1.51"/></svg>